<svg width="180" height="18" viewBox="0 0 180 18" fill="none" xmlns="http://www.w3.org/2000/svg">
  <path fillRule="evenodd" clipRule="evenodd" d="M107.238 0.00593483H138.626C138.993 0.00593483 139.29 0.325637 139.29 0.720134V6.65036C139.29 7.04485 138.993 7.36455 138.626 7.36455H135.713C135.346 7.36455 135.049 7.04485 135.049 6.65036V4.98161C135.049 4.58711 134.752 4.26696 134.386 4.26696H115.977C115.611 4.26696 115.314 4.58711 115.314 4.98161V6.15507C115.314 6.54956 115.611 6.86927 115.977 6.86927H130.501C130.867 6.86927 131.164 7.18897 131.164 7.58347V10.4161C131.164 10.8106 130.867 11.1307 130.501 11.1307H115.977C115.611 11.1307 115.314 11.4504 115.314 11.8449V13.0184C115.314 13.4129 115.611 13.7326 115.977 13.7326H134.386C134.752 13.7326 135.049 13.4129 135.049 13.0184V11.3492C135.049 10.9552 135.346 10.6355 135.713 10.6355H138.626C138.993 10.6355 139.29 10.9552 139.29 11.3492V17.2799C139.29 17.6744 138.993 17.9941 138.626 17.9941H107.238C106.872 17.9941 106.575 17.6744 106.575 17.2799V14.4468C106.575 14.0523 106.872 13.7326 107.238 13.7326H110.41C110.777 13.7326 111.074 13.4129 111.074 13.0184V4.98161C111.074 4.58711 110.777 4.26696 110.41 4.26696H107.238C106.872 4.26696 106.575 3.94771 106.575 3.55321V0.720134C106.575 0.325637 106.872 0.00593483 107.238 0.00593483ZM179.337 4.26011H176.164C175.798 4.26011 175.501 4.57981 175.501 4.97431V13.0243C175.501 13.4188 175.798 13.739 176.164 13.739H179.337C179.703 13.739 180 14.0582 180 14.4527V17.2858C180 17.6803 179.703 18 179.337 18H167.015C166.648 18 166.351 17.6803 166.351 17.2858V14.4527C166.351 14.0582 166.648 13.739 167.015 13.739H170.597C170.964 13.739 171.261 13.4188 171.261 13.0243V6.87747C171.261 6.39313 170.784 6.08164 170.385 6.30465L161.916 11.0409C161.724 11.1485 161.495 11.1485 161.303 11.0409L152.834 6.30465C152.435 6.08164 151.958 6.39313 151.958 6.87747V13.0243C151.958 13.4188 152.255 13.739 152.622 13.739H156.205C156.571 13.739 156.868 14.0582 156.868 14.4527V17.2858C156.868 17.6803 156.571 18 156.205 18H143.882C143.516 18 143.219 17.6803 143.219 17.2858V14.4527C143.219 14.0582 143.516 13.739 143.882 13.739H147.054C147.421 13.739 147.718 13.4188 147.718 13.0243V4.97431C147.718 4.57981 147.421 4.26011 147.054 4.26011H143.882C143.516 4.26011 143.219 3.93995 143.219 3.54591V0.714199C143.219 0.319246 143.517 -0.000455578 143.884 4.87338e-07L149.665 0.0109461C150.11 0.0114021 150.548 0.130891 150.94 0.358012L161.294 6.36166C161.491 6.47568 161.728 6.47568 161.925 6.36166L172.279 0.358012C172.671 0.130891 173.109 0.0114021 173.554 0.0109461L179.335 4.87338e-07C179.702 -0.000455578 180 0.319246 180 0.714199V3.54591C180 3.93995 179.703 4.26011 179.337 4.26011ZM74.2026 4.98161V7.53467C74.2026 7.92916 73.9053 8.24887 73.5393 8.24887H70.6255C70.2591 8.24887 69.9621 7.92916 69.9621 7.53467V4.26696V2.59365V0.720134C69.9621 0.325637 70.2591 0.00593483 70.6255 0.00593483H84.5991H88.8396H101.991C102.358 0.00593483 102.655 0.325637 102.655 0.720134V2.95075V4.26696V7.53467C102.655 7.92916 102.358 8.24887 101.991 8.24887H99.0776C98.7112 8.24887 98.4143 7.92916 98.4143 7.53467V4.98161C98.4143 4.58711 98.1174 4.26696 97.751 4.26696H89.0921C88.7257 4.26696 88.4287 4.58711 88.4287 4.98161V13.0184C88.4287 13.4129 88.7257 13.7326 89.0921 13.7326H93.9069C94.2733 13.7326 94.5703 14.0523 94.5703 14.4468V17.2799C94.5703 17.6744 94.2733 17.9941 93.9069 17.9941H78.2991C77.9327 17.9941 77.6358 17.6744 77.6358 17.2799V14.4468C77.6358 14.0523 77.9327 13.7326 78.2991 13.7326H83.5249C83.8913 13.7326 84.1882 13.4129 84.1882 13.0184V4.98161C84.1882 4.58711 83.8913 4.26696 83.5249 4.26696H74.866C74.4996 4.26696 74.2026 4.58711 74.2026 4.98161ZM4.2405 4.9821V7.53515C4.2405 7.92965 3.94357 8.24935 3.57717 8.24935H0.663757C0.297356 8.24935 0 7.92965 0 7.53515V0.720618C0 0.326122 0.297356 0.00641949 0.663757 0.00641949H32.0298C32.3961 0.00641949 32.6931 0.326122 32.6931 0.720618V7.53515C32.6931 7.92965 32.3961 8.24935 32.0298 8.24935H29.1159C28.7495 8.24935 28.4526 7.92965 28.4526 7.53515V4.9821C28.4526 4.5876 28.1556 4.26744 27.7892 4.26744H19.1303C18.7639 4.26744 18.467 4.5876 18.467 4.9821V13.0189C18.467 13.4134 18.7639 13.7331 19.1303 13.7331H23.9452C24.3116 13.7331 24.6086 14.0528 24.6086 14.4473V17.2804C24.6086 17.6749 24.3116 17.9946 23.9452 17.9946H8.33741C7.97101 17.9946 7.67408 17.6749 7.67408 17.2804V14.4473C7.67408 14.0528 7.97101 13.7331 8.33741 13.7331H13.5632C13.9296 13.7331 14.2261 13.4134 14.2261 13.0189V4.9821C14.2261 4.5876 13.9296 4.26744 13.5632 4.26744H4.90426C4.53786 4.26744 4.2405 4.5876 4.2405 4.9821ZM42.9387 4.26695H59.7161C61.9839 4.26695 63.8291 6.55823 63.8291 9C63.8291 11.4418 61.9839 13.7326 59.7161 13.7326H42.9387C40.6713 13.7326 38.8262 11.4418 38.8262 9C38.8262 6.55823 40.6713 4.26695 42.9387 4.26695ZM42.9387 17.9941H59.7161C64.3225 17.9941 68.0696 13.9593 68.0696 9.00001C68.0696 4.04075 64.3225 0.00593483 59.7161 0.00593483H42.9387C38.3327 0.00593483 34.5857 4.04075 34.5857 9.00001C34.5857 13.9593 38.3327 17.9941 42.9387 17.9941Z" fill="#332A23" />
</svg>
